HIERARCHY
ROOT joint_Root
{
	OFFSET 0.0 0.0 0.0
	CHANNELS 6 Xposition Yposition Zposition Zrotation Xrotation Yrotation 
	JOINT Hips
	{
		OFFSET 4.5925 91.4895 -427.239
		CHANNELS 6 Xposition Yposition Zposition Zrotation Xrotation Yrotation 
		JOINT Spine
		{
			OFFSET 15.7357 0.0 0.0
			CHANNELS 6 Xposition Yposition Zposition Zrotation Xrotation Yrotation 
			JOINT Chest
			{
				OFFSET 8.98455 -0.406207 0.0
				CHANNELS 6 Xposition Yposition Zposition Zrotation Xrotation Yrotation 
				JOINT Neck
				{
					OFFSET 16.3773 0.0 0.0
					CHANNELS 6 Xposition Yposition Zposition Zrotation Xrotation Yrotation 
					JOINT Head
					{
						OFFSET 6.45672 0.0 0.0
						CHANNELS 6 Xposition Yposition Zposition Zrotation Xrotation Yrotation 
						End Site
						{
							OFFSET 0.0 0.0 0.0
						}
					}
				}
				JOINT Shoulder_L
				{
					OFFSET 12.9942 -0.242716 4.98039
					CHANNELS 6 Xposition Yposition Zposition Zrotation Xrotation Yrotation 
					JOINT UpperArm_L
					{
						OFFSET 5.34809 0.0 0.0
						CHANNELS 6 Xposition Yposition Zposition Zrotation Xrotation Yrotation 
						JOINT LowerArm_L
						{
							OFFSET 24.3286 1.87007e-05 0.0
							CHANNELS 6 Xposition Yposition Zposition Zrotation Xrotation Yrotation 
							JOINT Hand_L
							{
								OFFSET 22.2916 0.0 0.0
								CHANNELS 6 Xposition Yposition Zposition Zrotation Xrotation Yrotation 
								End Site
								{
									OFFSET 0.0 0.0 0.0
								}
							}
						}
					}
				}
				JOINT Shoulder_R
				{
					OFFSET 12.9945 -0.242716 -4.98039
					CHANNELS 6 Xposition Yposition Zposition Zrotation Xrotation Yrotation 
					JOINT UpperArm_R
					{
						OFFSET -5.34813 0.0 0.0
						CHANNELS 6 Xposition Yposition Zposition Zrotation Xrotation Yrotation 
						JOINT LowerArm_R
						{
							OFFSET -24.3289 0.000322201 0.0
							CHANNELS 6 Xposition Yposition Zposition Zrotation Xrotation Yrotation 
							JOINT Hand_R
							{
								OFFSET -22.2915 -0.000108084 0.0
								CHANNELS 6 Xposition Yposition Zposition Zrotation Xrotation Yrotation 
								End Site
								{
									OFFSET 0.0 0.0 0.0
								}
							}
						}
					}
				}
			}
		}
		JOINT UpperLeg_L
		{
			OFFSET -2.19248 -6.46944 0.0
			CHANNELS 6 Xposition Yposition Zposition Zrotation Xrotation Yrotation 
			JOINT LowerLeg_L
			{
				OFFSET 39.0811 0.0 -1.23785e-05
				CHANNELS 6 Xposition Yposition Zposition Zrotation Xrotation Yrotation 
				JOINT Foot_L
				{
					OFFSET 40.9854 0.0 -1.26872e-05
					CHANNELS 6 Xposition Yposition Zposition Zrotation Xrotation Yrotation 
					JOINT Toes_L
					{
						OFFSET 11.7543 0.0 0.0
						CHANNELS 6 Xposition Yposition Zposition Zrotation Xrotation Yrotation 
						End Site
						{
							OFFSET 0.0 0.0 0.0
						}
					}
				}
			}
		}
		JOINT UpperLeg_R
		{
			OFFSET -2.19251 6.46944 0.0
			CHANNELS 6 Xposition Yposition Zposition Zrotation Xrotation Yrotation 
			JOINT LowerLeg_R
			{
				OFFSET -39.0811 -0.00228153 -0.0401928
				CHANNELS 6 Xposition Yposition Zposition Zrotation Xrotation Yrotation 
				JOINT Foot_R
				{
					OFFSET -40.9854 0.0 0.0
					CHANNELS 6 Xposition Yposition Zposition Zrotation Xrotation Yrotation 
					JOINT Toes_R
					{
						OFFSET -11.7543 0.0 0.0
						CHANNELS 6 Xposition Yposition Zposition Zrotation Xrotation Yrotation 
						End Site
						{
							OFFSET 0.0 0.0 0.0
						}
					}
				}
			}
		}
	}
}
MOTION
Frames:	6
Frame Time:	0.0333333
0.000000 0.000000 0.000000 0.000000 0.000000 -0.000000 3.006870 85.876400 0.532802 89.663900 -6.101300 8.420920 15.735700 0.000005 -0.000001 106.709000 81.431600 -106.509000 8.984550 -0.406207 -0.000000 8.662280 4.904400 0.027084 16.377300 -0.000001 -0.000001 -0.084455 -4.439560 2.363770 6.456720 -0.000001 -0.000000 -1.605720 -8.487020 4.970350 12.994200 -0.242716 4.980390 -92.304900 5.357290 -66.678300 5.348090 -0.000007 -0.000001 -70.962700 19.031800 -1.621910 24.328600 0.000019 0.000005 11.756800 24.649100 -26.520500 22.291600 -0.000001 0.000005 6.667780 5.165910 3.528280 12.994500 -0.242716 -4.980390 88.710700 7.899970 -80.699800 -5.348130 -0.000001 -0.000004 -61.769400 29.438700 -13.249300 -24.328900 0.000322 -0.000009 -0.334637 -0.908845 -20.143000 -22.291500 -0.000108 -0.000004 17.242900 5.413620 -3.383200 -2.192480 -6.469440 -0.000000 -176.689000 -15.274600 -10.276300 39.081100 -0.000007 -0.000012 -0.419218 0.345738 50.487800 40.985400 -0.000006 -0.000013 2.391480 2.966440 -81.780400 11.754300 -0.000000 0.000003 -0.000256 -0.002276 -16.662800 -2.192510 6.469440 -0.000001 174.217000 10.364500 168.414000 -39.081100 -0.002282 -0.040193 0.047620 -0.035681 51.199300 -40.985400 0.000008 0.000006 4.690530 7.601210 -80.311700 -11.754300 -0.000006 -0.000006 -0.696144 -0.853240 -17.400200
0.000000 0.000000 0.000000 0.000000 0.000000 -0.000000 3.664610 87.485100 1.091780 89.704300 -8.795500 7.110370 15.735700 0.000005 -0.000001 107.624000 82.407200 -106.529000 8.984550 -0.406207 -0.000000 6.680340 4.572630 1.920700 16.377300 -0.000001 -0.000001 0.949559 -3.646870 2.651410 6.456720 -0.000001 -0.000000 -0.776976 -6.818860 3.209820 12.994200 -0.242716 4.980390 -91.803400 4.051070 -65.976300 5.348090 -0.000007 -0.000001 -67.397700 14.270500 -0.303315 24.328600 0.000019 0.000005 11.065700 22.214500 -27.351300 22.291600 -0.000001 0.000005 2.861630 5.181900 3.170450 12.994500 -0.242716 -4.980390 88.664700 7.285390 -79.583700 -5.348130 -0.000001 -0.000004 -62.550000 28.334000 -13.462900 -24.328900 0.000322 -0.000009 0.444587 1.236870 -19.811000 -22.291500 -0.000108 -0.000004 16.850100 5.393890 -2.740280 -2.192480 -6.469440 -0.000000 -177.540000 -16.438100 -8.087480 39.081100 -0.000007 -0.000012 -0.352620 0.359586 44.440400 40.985400 -0.000006 -0.000013 1.989370 1.458480 -79.319700 11.754300 -0.000000 0.000003 -0.000231 -0.002093 -16.656200 -2.192510 6.469440 -0.000001 174.016000 9.127960 169.605000 -39.081100 -0.002282 -0.040193 0.030417 -0.026517 45.680800 -40.985400 0.000008 0.000006 4.299360 9.303740 -77.141900 -11.754300 -0.000006 -0.000006 -0.698498 -0.853103 -17.788600
0.000000 0.000000 0.000000 0.000000 0.000000 -0.000000 4.010560 89.027900 1.468040 89.358300 -10.777800 5.394010 15.735700 0.000005 -0.000001 108.819000 83.546900 -106.746000 8.984550 -0.406207 -0.000000 4.388740 4.095230 3.985180 16.377300 -0.000001 -0.000001 2.486640 -2.477790 2.242670 6.456720 -0.000001 -0.000000 -0.432546 -5.077910 1.167120 12.994200 -0.242716 4.980390 -91.098900 2.385910 -65.259300 5.348090 -0.000007 -0.000001 -58.643100 5.555020 -3.802720 24.328600 0.000019 0.000005 11.718500 22.463300 -28.496400 22.291600 -0.000001 0.000005 4.307730 5.143150 4.101150 12.994500 -0.242716 -4.980390 88.667200 6.621590 -78.592400 -5.348130 -0.000001 -0.000004 -63.972000 26.871000 -11.848300 -24.328900 0.000322 -0.000009 0.425465 1.070530 -21.749300 -22.291500 -0.000108 -0.000004 16.466100 5.408640 -3.222670 -2.192480 -6.469440 -0.000000 -177.952000 -17.141900 -6.322470 39.081100 -0.000007 -0.000012 -0.287304 0.366479 38.095500 40.985400 -0.000006 -0.000013 1.661870 0.400821 -76.498700 11.754300 -0.000000 0.000003 -0.000199 -0.001844 -16.647100 -2.192510 6.469440 -0.000001 174.334000 9.131630 170.647000 -39.081100 -0.002282 -0.040193 0.018828 -0.018672 39.785800 -40.985400 0.000008 0.000006 4.141600 11.146100 -73.580100 -11.754300 -0.000006 -0.000006 -0.708340 -0.860643 -18.347200
0.000000 0.000000 0.000000 0.000000 0.000000 -0.000000 3.983640 90.092500 1.625580 88.927400 -11.816000 4.055480 15.735700 0.000005 -0.000001 110.203000 84.409800 -107.384000 8.984550 -0.406207 -0.000000 2.646180 3.731910 5.547390 16.377300 -0.000001 -0.000001 3.713150 -1.604750 1.939030 6.456720 -0.000001 -0.000000 -0.214086 -3.580280 -0.503198 12.994200 -0.242716 4.980390 -90.354900 0.779577 -65.530700 5.348090 -0.000007 -0.000001 -48.793000 -10.422400 -10.423000 24.328600 0.000019 0.000005 8.310360 14.672600 -29.992500 22.291600 -0.000001 0.000005 7.619140 5.105950 4.976230 12.994500 -0.242716 -4.980390 88.609100 6.475220 -77.849300 -5.348130 -0.000001 -0.000004 -64.559200 26.101200 -9.766180 -24.328900 0.000322 -0.000009 -0.511947 -1.121270 -24.460200 -22.291500 -0.000108 -0.000004 15.501900 5.437130 -4.191070 -2.192480 -6.469440 -0.000000 -177.846000 -17.596800 -5.032710 39.081100 -0.000007 -0.000012 -0.231932 0.353773 33.249100 40.985400 -0.000006 -0.000013 1.448590 0.187248 -74.216800 11.754300 -0.000000 0.000003 -0.000161 -0.001543 -16.636100 -2.192510 6.469440 -0.000001 174.781000 10.667900 171.895000 -39.081100 -0.002282 -0.040193 0.014156 -0.015665 34.743200 -40.985400 0.000008 0.000006 4.442150 13.228700 -71.391400 -11.754300 -0.000006 -0.000006 -0.421503 -0.524215 -18.346200
0.000000 0.000000 0.000000 0.000000 0.000000 -0.000000 3.787170 90.591400 1.641020 88.726600 -11.551400 3.398480 15.735700 0.000005 -0.000001 108.554000 84.837600 -105.432000 8.984550 -0.406207 -0.000000 1.947580 3.124880 6.186010 16.377300 -0.000001 -0.000001 4.085700 -1.227640 2.078390 6.456720 -0.000001 -0.000000 -0.355438 -2.635480 -1.073730 12.994200 -0.242716 4.980390 -89.562300 -1.013030 -66.611200 5.348090 -0.000007 -0.000001 -39.184100 -24.893800 -19.055300 24.328600 0.000019 0.000005 5.257680 7.318450 -35.854900 22.291600 -0.000001 0.000005 13.685700 5.188480 3.051340 12.994500 -0.242716 -4.980390 88.437700 6.980840 -77.352200 -5.348130 -0.000001 -0.000004 -63.695600 26.427200 -8.731150 -24.328900 0.000322 -0.000009 -1.440720 -2.867890 -26.667200 -22.291500 -0.000108 -0.000004 14.797200 5.454440 -4.799290 -2.192480 -6.469440 -0.000000 -177.788000 -16.791100 -4.503000 39.081100 -0.000007 -0.000012 -0.199019 0.333397 30.835100 40.985400 -0.000006 -0.000013 1.200170 -0.028909 -72.962700 11.754300 -0.000000 0.000003 -0.000162 -0.001550 -16.636400 -2.192510 6.469440 -0.000001 174.775000 13.885800 173.381000 -39.081100 -0.002282 -0.040193 0.009487 -0.010212 31.213400 -40.985400 0.000008 0.000006 4.987140 15.760800 -71.194700 -11.754300 -0.000006 -0.000006 -0.002234 -0.031608 -17.858400
0.000000 0.000000 0.000000 0.000000 0.000000 -0.000000 3.616370 90.735900 1.552080 88.439400 -10.807900 3.459110 15.735700 0.000005 -0.000001 104.639000 84.849200 -101.387000 8.984550 -0.406207 -0.000000 2.142120 2.442290 6.452560 16.377300 -0.000001 -0.000001 3.831000 -1.162170 1.998620 6.456720 -0.000001 -0.000000 -0.658910 -2.192850 -0.342451 12.994200 -0.242716 4.980390 -88.759100 -3.114720 -68.257200 5.348090 -0.000007 -0.000001 -31.078600 -39.338300 -27.839100 24.328600 0.000019 0.000005 6.034640 6.115390 -44.787200 22.291600 -0.000001 0.000005 15.190100 5.316240 -0.391875 12.994500 -0.242716 -4.980390 88.172100 7.947610 -77.002900 -5.348130 -0.000001 -0.000004 -61.349000 27.383600 -8.887710 -24.328900 0.000322 -0.000009 -1.024040 -1.948980 -27.703200 -22.291500 -0.000108 -0.000004 15.083400 5.452000 -4.712130 -2.192480 -6.469440 -0.000000 -177.572000 -15.248700 -4.312390 39.081100 -0.000007 -0.000012 -0.198831 0.339600 30.348700 40.985400 -0.000006 -0.000013 0.906577 -0.717364 -72.579600 11.754300 -0.000000 0.000003 -0.000171 -0.001623 -16.639000 -2.192510 6.469440 -0.000001 174.711000 16.370000 174.730000 -39.081100 -0.002282 -0.040193 -0.013450 0.029757 29.379500 -40.985400 0.000008 0.000006 4.903940 17.530200 -71.327800 -11.754300 -0.000006 -0.000006 -0.001956 -0.028167 -17.718400
